HIERARCHY
ROOT Hips
{
	OFFSET 0.00000 0.00000 0.00000
	CHANNELS 6 Xposition Yposition Zposition Zrotation Yrotation Xrotation 
	JOINT LHipJoint
	{
		OFFSET 0 0 0
		CHANNELS 3 Zrotation Yrotation Xrotation
		JOINT LeftUpLeg
		{
			OFFSET 1.74857 -1.85566 0.69197
			CHANNELS 3 Zrotation Yrotation Xrotation
			JOINT LeftLeg
			{
				OFFSET 2.40003 -6.59403 0.00000
				CHANNELS 3 Zrotation Yrotation Xrotation
				JOINT LeftFoot
				{
					OFFSET 2.82169 -7.75254 0.00000
					CHANNELS 3 Zrotation Yrotation Xrotation
					JOINT LeftToeBase
					{
						OFFSET 0.16466 -0.45240 2.26890
						CHANNELS 3 Zrotation Yrotation Xrotation
						End Site
						{
							OFFSET 0.00000 -0.00000 1.16486
						}
					}
				}
			}
		}
	}
	JOINT RHipJoint
	{
		OFFSET 0 0 0
		CHANNELS 3 Zrotation Yrotation Xrotation
		JOINT RightUpLeg
		{
			OFFSET -1.64169 -1.85566 0.69197
			CHANNELS 3 Zrotation Yrotation Xrotation
			JOINT RightLeg
			{
				OFFSET -2.41814 -6.64379 0.00000
				CHANNELS 3 Zrotation Yrotation Xrotation
				JOINT RightFoot
				{
					OFFSET -2.80588 -7.70911 0.00000
					CHANNELS 3 Zrotation Yrotation Xrotation
					JOINT RightToeBase
					{
						OFFSET -0.19098 -0.52472 2.25401
						CHANNELS 3 Zrotation Yrotation Xrotation
						End Site
						{
							OFFSET -0.00000 -0.00000 1.16333
						}
					}
				}
			}
		}
	}
	JOINT LowerBack
	{
		OFFSET 0 0 0
		CHANNELS 3 Zrotation Yrotation Xrotation
		JOINT Spine
		{
			OFFSET -0.02828 2.14690 -0.11061
			CHANNELS 3 Zrotation Yrotation Xrotation
			JOINT Spine1
			{
				OFFSET -0.00167 2.15299 0.00759
				CHANNELS 3 Zrotation Yrotation Xrotation
				JOINT Neck
				{
					OFFSET 0 0 0
					CHANNELS 3 Zrotation Yrotation Xrotation
					JOINT Neck1
					{
						OFFSET -0.09296 1.90118 0.07197
						CHANNELS 3 Zrotation Yrotation Xrotation
						JOINT Head
						{
							OFFSET 0.08490 1.89526 -0.24604
							CHANNELS 3 Zrotation Yrotation Xrotation
							End Site
							{
								OFFSET 0.03186 1.92109 -0.09483
							}
						}
					}
				}
				JOINT LeftShoulder
				{
					OFFSET 0 0 0
					CHANNELS 3 Zrotation Yrotation Xrotation
					JOINT LeftArm
					{
						OFFSET 3.21569 1.44644 -0.03720
						CHANNELS 3 Zrotation Yrotation Xrotation
						JOINT LeftForeArm
						{
							OFFSET 5.47651 -0.00000 -0.00000
							CHANNELS 3 Zrotation Yrotation Xrotation
							JOINT LeftHand
							{
								OFFSET 3.09058 -0.00000 -0.00000
								CHANNELS 3 Zrotation Yrotation Xrotation
								JOINT LeftFingerBase
								{
									OFFSET 0 0 0
									CHANNELS 3 Zrotation Yrotation Xrotation
									JOINT LeftHandIndex1
									{
										OFFSET 0.77161 -0.00000 -0.00000
										CHANNELS 3 Zrotation Yrotation Xrotation
										End Site
										{
											OFFSET 0.62209 -0.00000 -0.00000
										}
									}
								}
								JOINT LThumb
								{
									OFFSET 0 0 0
									CHANNELS 3 Zrotation Yrotation Xrotation
									End Site
									{
										OFFSET 0.63159 -0.00000 0.63159
									}
								}
							}
						}
					}
				}
				JOINT RightShoulder
				{
					OFFSET 0 0 0
					CHANNELS 3 Zrotation Yrotation Xrotation
					JOINT RightArm
					{
						OFFSET -3.38693 1.28904 -0.07093
						CHANNELS 3 Zrotation Yrotation Xrotation
						JOINT RightForeArm
						{
							OFFSET -5.14182 -0.00000 -0.00000
							CHANNELS 3 Zrotation Yrotation Xrotation
							JOINT RightHand
							{
								OFFSET -3.35565 -0.00000 -0.00000
								CHANNELS 3 Zrotation Yrotation Xrotation
								JOINT RightFingerBase
								{
									OFFSET 0 0 0
									CHANNELS 3 Zrotation Yrotation Xrotation
									JOINT RightHandIndex1
									{
										OFFSET -0.80104 -0.00000 -0.00000
										CHANNELS 3 Zrotation Yrotation Xrotation
										End Site
										{
											OFFSET -0.64582 -0.00000 -0.00000
										}
									}
								}
								JOINT RThumb
								{
									OFFSET 0 0 0
									CHANNELS 3 Zrotation Yrotation Xrotation
									End Site
									{
										OFFSET -0.65568 -0.00000 0.65568
									}
								}
							}
						}
					}
				}
			}
		}
	}
}
MOTION
Frames: 11
Frame Time: .0083333
-0.3926 16.7084 -0.8750 4.3894 14.2961 3.0020 0.0000 0.0000 0.0000 -19.6643 -11.2703 -28.6161 7.6506 15.8562 51.2943 1.6238 -5.3069 -22.9611 0.7815 -5.6439 -15.7546 0.0000 0.0000 0.0000 13.8220 -5.7854 -31.8668 -9.1970 -16.9328 56.7688 -2.0758 -12.3162 -33.9293 -0.4455 4.2824 -11.8725 1.7662 6.7128 19.6500 -2.1347 9.1577 12.0909 -4.7184 4.8968 2.8984 1.5196 5.4098 6.7696 2.2364 7.3277 1.1303 0.2416 3.6250 -0.7958 0.0000 0.0000 0.0000 -96.8678 -53.3419 60.8938 150.2899 -40.6436 -108.7797 -0.0000 -0.0000 14.9034 -34.6327 37.1766 -22.6542 -7.1250 0.0000 -0.0000 -69.9926 54.2552 -24.7890 0.0000 0.0000 0.0000 85.7335 46.8285 42.1296 -149.2228 41.5503 -108.0782 0.0000 0.0000 19.4087 31.7069 -9.8691 -6.0443 7.1250 -0.0000 -0.0000 44.9588 -35.1729 15.1269
-0.4013 16.7055 -0.8739 4.1716 14.5292 2.9924 0.0000 0.0000 0.0000 -19.3744 -11.4264 -28.7165 7.6762 15.8758 51.3877 1.6155 -5.3570 -22.8949 0.7880 -5.6669 -15.8209 0.0000 0.0000 0.0000 14.1154 -5.8982 -31.9170 -9.1986 -16.9338 56.7743 -2.0742 -12.4087 -33.9880 -0.4419 4.2655 -11.8249 2.0500 6.7350 19.7027 -2.0946 9.2315 12.0439 -4.8498 4.9481 2.8674 1.6063 5.3067 6.7629 2.2505 7.1978 1.1432 0.2359 3.5609 -0.7876 -0.0000 0.0000 0.0000 -96.9210 -53.3106 61.1133 150.3082 -40.6278 -108.7916 -0.0000 -0.0000 14.9415 -34.4704 37.2028 -22.5432 -7.1250 0.0000 -0.0000 -69.9108 54.3028 -24.8261 -0.0000 0.0000 0.0000 85.7870 46.6294 42.0282 -149.2299 41.5444 -108.0829 0.0000 0.0000 19.4236 31.7748 -9.8652 -6.0579 7.1250 -0.0000 -0.0000 44.9894 -35.1564 15.1740
-0.4108 16.7028 -0.8716 4.0412 14.7332 2.9915 0.0000 0.0000 0.0000 -19.1763 -11.5565 -28.7935 7.6982 15.8927 51.4681 1.6078 -5.4275 -22.8308 0.7966 -5.6968 -15.9073 0.0000 0.0000 0.0000 14.3146 -5.9565 -31.9389 -9.2022 -16.9361 56.7867 -2.0716 -12.4959 -34.0372 -0.4283 4.2000 -11.6399 2.1850 6.7267 19.7280 -2.0504 9.2425 12.0117 -4.8835 4.9585 2.8342 1.4960 5.2606 6.7571 2.3352 7.1288 1.1796 0.2817 3.5257 -0.7826 -0.0000 -0.0000 0.0000 -96.8374 -53.2682 61.0469 150.2978 -40.6368 -108.7848 -0.0000 -0.0000 14.9363 -34.2257 37.2909 -22.3986 -7.1250 0.0000 -0.0000 -69.8462 54.4003 -24.9743 -0.0000 -0.0000 0.0000 85.8121 46.4727 42.0738 -149.3004 41.4856 -108.1296 0.0000 0.0000 19.3561 31.9276 -10.0268 -6.1918 7.1250 -0.0000 -0.0000 45.1490 -35.2644 15.0949
-0.4201 16.7005 -0.8686 4.0180 14.9276 2.9570 0.0000 0.0000 0.0000 -19.1120 -11.6802 -28.7751 7.7128 15.9039 51.5214 1.5982 -5.5790 -22.7451 0.7667 -5.5913 -15.6031 0.0000 0.0000 0.0000 14.3835 -6.0470 -31.9054 -9.2080 -16.9397 56.8068 -2.0747 -12.5795 -34.1163 -0.4215 4.1669 -11.5467 2.0538 6.6544 19.7065 -1.9197 9.1283 12.0229 -4.6559 4.8859 2.7977 1.1200 5.3410 6.8921 2.3014 7.2087 1.1677 0.3252 3.5633 -0.8224 -0.0000 0.0000 0.0000 -96.6696 -53.1414 60.6741 150.2404 -40.6864 -108.7474 -0.0000 -0.0000 14.6841 -33.7044 37.6860 -22.1845 -7.1250 0.0000 -0.0000 -69.9618 54.7173 -25.6817 -0.0000 0.0000 0.0000 85.8952 46.3746 42.4889 -149.3769 41.4215 -108.1803 0.0000 0.0000 19.2412 32.2164 -9.9941 -6.2409 7.1250 -0.0000 -0.0000 45.2683 -35.1795 15.3155
-0.4295 16.6971 -0.8674 4.0206 15.0973 2.9270 0.0000 0.0000 0.0000 -19.0852 -11.7596 -28.7642 7.7197 15.9092 51.5467 1.5850 -5.5795 -22.6473 0.7818 -5.6450 -15.7578 0.0000 0.0000 0.0000 14.4200 -6.1160 -31.8888 -9.2211 -16.9479 56.8516 -2.0767 -12.6706 -34.1948 -0.4273 4.1954 -11.6270 1.7013 6.5392 19.5767 -1.6759 8.9243 12.0909 -4.1593 4.7509 2.8138 0.5144 5.5355 7.2016 2.1805 7.4244 0.9578 0.3663 3.6654 -0.9615 -0.0000 0.0000 0.0000 -96.4150 -53.0147 59.9141 150.2639 -40.6661 -108.7627 -0.0000 -0.0000 14.6038 -33.3648 37.9650 -22.0526 -7.1250 0.0000 -0.0000 -70.0640 54.9351 -26.1805 -0.0000 0.0000 0.0000 85.9829 46.3748 43.2819 -149.3680 41.4290 -108.1744 0.0000 0.0000 19.1717 32.1180 -9.8712 -6.1423 7.1250 -0.0000 -0.0000 45.1557 -35.0940 15.3869
-0.4357 16.6952 -0.8677 4.0761 15.2648 2.9648 0.0000 0.0000 0.0000 -19.1196 -11.9044 -28.7775 7.7208 15.9100 51.5506 1.5737 -5.5894 -22.5625 0.7705 -5.6051 -15.6428 0.0000 0.0000 0.0000 14.3863 -6.1708 -31.9421 -9.2353 -16.9568 56.9004 -2.1152 -12.5380 -34.3125 -0.3895 4.0073 -11.0973 1.5574 6.5130 19.5105 -1.5933 8.8696 12.1139 -3.9772 4.7115 2.8290 0.2591 5.5677 7.4282 2.1247 7.4521 0.6993 0.3780 3.6753 -1.0907 -0.0000 0.0000 0.0000 -96.3103 -52.9390 59.6624 150.3186 -40.6188 -108.7984 -0.0000 -0.0000 14.7068 -33.4599 37.9543 -22.1199 -7.1250 0.0000 -0.0000 -70.1186 54.9091 -26.1697 -0.0000 0.0000 0.0000 86.0258 46.3601 43.5588 -149.3467 41.4469 -108.1603 0.0000 0.0000 19.2073 32.0029 -9.7994 -6.0714 7.1250 -0.0000 -0.0000 45.0628 -35.0555 15.3911
-0.4414 16.6940 -0.8676 4.1580 15.4358 3.0214 0.0000 0.0000 0.0000 -19.1798 -12.0583 -28.7768 7.7194 15.9090 51.5458 1.5697 -5.6682 -22.5250 0.7560 -5.5530 -15.4928 0.0000 0.0000 0.0000 14.3200 -6.2583 -32.0209 -9.2518 -16.9671 56.9569 -2.1647 -12.3632 -34.4619 -0.3510 3.8066 -10.5333 1.5236 6.5462 19.5148 -1.5955 8.9096 12.1208 -3.9672 4.7309 2.8332 0.2019 5.5036 7.3812 2.1669 7.3645 0.6423 0.4033 3.6308 -1.1043 0.0000 -0.0000 0.0000 -96.3839 -52.9179 59.7383 150.4087 -40.5405 -108.8570 -0.0000 -0.0000 14.9509 -33.9717 37.6001 -22.3481 -7.1250 0.0000 -0.0000 -70.0457 54.6157 -25.5425 0.0000 -0.0000 0.0000 85.9488 46.3695 43.4074 -149.3449 41.4483 -108.1591 0.0000 0.0000 19.2475 32.1265 -9.7192 -6.0513 7.1250 -0.0000 -0.0000 45.0783 -34.9625 15.5582
-0.4480 16.6916 -0.8670 4.2192 15.5566 3.0643 0.0000 0.0000 0.0000 -19.2137 -12.1482 -28.7960 7.7198 15.9093 51.5471 1.5687 -5.6911 -22.5155 0.7625 -5.5766 -15.5606 0.0000 0.0000 0.0000 14.2892 -6.2638 -32.0582 -9.2671 -16.9765 57.0092 -2.1344 -12.6220 -34.4809 -0.3862 3.9909 -11.0510 1.3756 6.5438 19.5096 -1.5582 8.8838 12.1113 -3.8452 4.7066 2.7924 0.0922 5.5274 7.3164 2.1801 7.3854 0.7087 0.4275 3.6419 -1.0772 -0.0000 -0.0000 0.0000 -96.2962 -52.8811 59.4846 150.4900 -40.4697 -108.9098 -0.0000 -0.0000 15.0923 -34.3869 37.3571 -22.5515 -7.1250 0.0000 -0.0000 -70.0407 54.4012 -25.1144 -0.0000 -0.0000 0.0000 85.9693 46.3594 43.5249 -149.3440 41.4491 -108.1585 0.0000 0.0000 19.2924 32.0932 -9.7149 -6.0409 7.1250 -0.0000 -0.0000 45.0604 -34.9654 15.5414
-0.4534 16.6898 -0.8668 4.2551 15.6279 3.0608 0.0000 0.0000 0.0000 -19.2322 -12.1856 -28.7906 7.7194 15.9090 51.5458 1.5659 -5.6895 -22.4949 0.7696 -5.6017 -15.6329 0.0000 0.0000 0.0000 14.2748 -6.2420 -32.0420 -9.2818 -16.9857 57.0596 -2.1122 -12.8251 -34.5072 -0.4117 4.1189 -11.4114 1.2625 6.5574 19.5746 -1.5228 8.8821 12.0755 -3.7588 4.6952 2.6955 0.0818 5.5347 7.4120 2.1040 7.3933 0.6889 0.4025 3.6462 -1.0971 -0.0000 0.0000 0.0000 -96.1752 -52.8299 59.2935 150.4434 -40.5103 -108.8795 -0.0000 -0.0000 14.7877 -34.1582 37.3792 -22.3882 -7.1250 0.0000 -0.0000 -69.9067 54.4608 -25.1372 -0.0000 0.0000 0.0000 86.0438 46.2918 43.6330 -149.3333 41.4580 -108.1514 0.0000 0.0000 19.3327 32.0988 -9.6435 -5.9985 7.1250 -0.0000 -0.0000 45.0249 -34.9032 15.6228
-0.4576 16.6872 -0.8678 4.2301 15.7093 3.0471 0.0000 0.0000 0.0000 -19.1874 -12.2159 -28.8118 7.7223 15.9112 51.5562 1.5540 -5.7495 -22.4008 0.7426 -5.5050 -15.3547 0.0000 0.0000 0.0000 14.3167 -6.2203 -32.0377 -9.2912 -16.9915 57.0918 -2.1639 -12.6344 -34.6536 -0.3575 3.8414 -10.6308 1.2532 6.5671 19.6080 -1.4814 8.8931 12.0680 -3.7171 4.6977 2.6624 0.0948 5.5032 7.3835 2.0148 7.3495 0.7392 0.3763 3.6267 -1.0714 -0.0000 0.0000 0.0000 -96.0804 -52.8148 59.2826 150.3307 -40.6082 -108.8063 -0.0000 -0.0000 14.3451 -33.6797 37.7356 -22.1882 -7.1250 0.0000 -0.0000 -70.0053 54.7484 -25.7739 -0.0000 0.0000 0.0000 86.0380 46.2905 43.6512 -149.3030 41.4834 -108.1314 0.0000 0.0000 19.3045 32.1300 -9.7119 -6.0476 7.1250 -0.0000 -0.0000 45.0761 -34.9556 15.5683
-0.4619 16.6851 -0.8691 4.3120 15.8179 3.0847 0.0000 0.0000 0.0000 -19.2576 -12.3010 -28.8277 7.7206 15.9099 51.5501 1.5480 -5.7480 -22.3561 0.7528 -5.5417 -15.4602 0.0000 0.0000 0.0000 14.2495 -6.2596 -32.0795 -9.3028 -16.9987 57.1315 -2.1946 -12.5410 -34.7555 -0.3250 3.6643 -10.1342 1.1400 6.5645 19.6021 -1.4653 8.8730 12.0715 -3.6355 4.6804 2.6467 0.1005 5.4824 7.3616 1.9267 7.3197 0.7724 0.3507 3.6138 -1.0528 -0.0000 -0.0000 0.0000 -95.9912 -52.7930 59.1864 150.3602 -40.5826 -108.8255 -0.0000 -0.0000 14.3841 -33.8623 37.7941 -22.3533 -7.1250 0.0000 -0.0000 -70.2070 54.7398 -25.9031 -0.0000 -0.0000 0.0000 86.0248 46.2978 43.6988 -149.2968 41.4886 -108.1273 0.0000 0.0000 19.2301 32.1505 -9.7678 -6.0866 7.1250 -0.0000 -0.0000 45.1156 -34.9992 15.5208
